<?xml version="1.0" encoding="utf-8"?>
<!-- Generator: Adobe Illustrator 24.1.2, SVG Export Plug-In . SVG Version: 6.00 Build 0)  -->
<svg version="1.1" id="Слой_1" xmlns="http://www.w3.org/2000/svg" xmlns:xlink="http://www.w3.org/1999/xlink" x="0px" y="0px"
	 viewBox="0 0 527.8 132" style="enable-background:new 0 0 527.8 132;" xml:space="preserve">
<style type="text/css">
	.st0{display:none;fill:#FDFDFD;}
	.st1{display:none;fill:#BCBCBC;}
	.st2{fill:#17E666;}
</style>
<g>
	<path class="st0" d="M613.8,116.5c0,115.1,0,230.3,0.1,345.4c0,3.4-0.7,4.1-4.1,4.1c-230.6-0.1-461.2-0.1-691.8,0
		c-3.4,0-4.1-0.7-4.1-4.1c0.1-230.6,0.1-461.2,0-691.8c0-3.4,0.7-4.1,4.1-4.1c230.6,0.1,461.2,0.1,691.8,0c3.4,0,4.1,0.7,4.1,4.1
		C613.8-114.5,613.8,1,613.8,116.5z"/>
	<path class="st1" d="M135.7,389.3c0.5,0.6,0.9,0.9,1,1.3c0,0.3-0.4,0.7-0.6,1c-0.3-0.3-0.7-0.6-0.8-0.9
		C135.1,390.4,135.4,389.9,135.7,389.3z"/>
	<path class="st2" d="M66.3,0C29.9-0.1,0.1,29.5,0,65.8c-0.1,36.4,29.6,66.1,65.9,66.2c36.1,0,65.9-29.5,66-65.5
		C132.1,30,102.5,0.1,66.3,0z M65.7,108C42.5,107.9,24,89.2,24,66c0-23.4,18.8-42.1,42.2-42C89.4,24.1,108,42.8,108,66
		C108,89.4,89.2,108.1,65.7,108z"/>
	<path class="st2" d="M264.2,0c-36.4-0.1-66.2,29.5-66.3,65.8c-0.1,36.4,29.6,66.1,65.9,66.2c36.1,0,65.9-29.5,66-65.5
		C330,30,300.5,0.1,264.2,0z M263.5,108c-23.1-0.1-41.6-18.9-41.6-42.1c0-23.4,18.9-42,42.4-41.8c23.1,0.1,41.6,18.9,41.6,42.1
		C305.9,89.5,287,108.1,263.5,108z"/>
	<path class="st2" d="M462,0c-36.4-0.1-66.1,29.6-66.2,65.9c0,36.1,29.5,65.9,65.5,66c36.4,0.2,66.3-29.4,66.4-65.7
		C527.9,29.9,498.3,0.1,462,0z M462,108c-23.4,0.1-42.2-18.6-42.1-42.1c0-23.2,18.6-41.8,41.8-41.9c23.5-0.1,42.2,18.6,42.1,42.1
		C503.8,89.3,485.2,107.9,462,108z"/>
</g>
</svg>
