<?xml version="1.0" encoding="utf-8"?>
<!-- Generator: Adobe Illustrator 24.1.2, SVG Export Plug-In . SVG Version: 6.00 Build 0)  -->
<svg version="1.1" id="Слой_1" xmlns="http://www.w3.org/2000/svg" xmlns:xlink="http://www.w3.org/1999/xlink" x="0px" y="0px"
	 viewBox="0 0 64 66" style="enable-background:new 0 0 64 66;" xml:space="preserve">
<style type="text/css">
	.st0{fill:#17E666;}
</style>
<g>
	<path class="st0" d="M17.5,59.8c0,3.4,2.8,6.2,6.2,6.2s6.2-2.8,6.2-6.2s-2.8-6.2-6.2-6.2S17.5,56.3,17.5,59.8z M26,59.8
		c0,1.2-1,2.2-2.2,2.2s-2.2-1-2.2-2.2s1-2.2,2.2-2.2S26,58.5,26,59.8z"/>
	<path class="st0" d="M51.2,53.5c-3.4,0-6.2,2.8-6.2,6.2s2.8,6.2,6.2,6.2s6.2-2.8,6.2-6.2S54.7,53.5,51.2,53.5z M51.2,62
		C50,62,49,61,49,59.8s1-2.2,2.2-2.2s2.2,1,2.2,2.2S52.5,62,51.2,62z"/>
	<path class="st0" d="M2,4h5.6l9.6,35.7c-2.1,1.2-4,3.3-4,5.8c0,1.7,0.7,5.5,7,5.5H57c1.1,0,2-0.9,2-2s-0.9-2-2-2H20.1
		c-3,0-3-1-3-1.5c0-0.9,1.3-2.1,2.8-2.7l37.3-4c0.9-0.1,1.6-0.7,1.7-1.6l5-23.8c0.1-0.6,0-1.2-0.4-1.7s-1-0.7-1.6-0.7H13.6L11,1.5
		C10.8,0.6,10,0,9.1,0H2C0.9,0,0,0.9,0,2S0.9,4,2,4z M59.5,15l-4.2,19.9L21,38.6L14.7,15H59.5z"/>
</g>
</svg>
