<?xml version="1.0" encoding="utf-8"?>
<!-- Generator: Adobe Illustrator 24.1.2, SVG Export Plug-In . SVG Version: 6.00 Build 0)  -->
<svg version="1.1" id="Слой_1" xmlns="http://www.w3.org/2000/svg" xmlns:xlink="http://www.w3.org/1999/xlink" x="0px" y="0px"
	 viewBox="0 0 74 74" style="enable-background:new 0 0 74 74;" xml:space="preserve">
<style type="text/css">
	.st0{fill:#17E666;}
</style>
<g>
	<path class="st0" d="M0,34c0,7.9,5.9,14,13.5,14H14v13c0,0.8,0.5,1.5,1.2,1.8C15.5,63,15.7,63,16,63c0.5,0,1-0.2,1.4-0.6L31.8,48
		h16.7C56.1,48,62,41.9,62,34V14c0-7.9-5.9-14-13.5-14h-35C5.9,0,0,6.1,0,14V34z M4,14C4,8.3,8.1,4,13.5,4h35C53.9,4,58,8.3,58,14
		v20c0,5.7-4.1,10-9.5,10H31c-0.5,0-1,0.2-1.4,0.6L18,56.2V46c0-1.1-0.9-2-2-2h-2.5C8.1,44,4,39.7,4,34V14z"/>
	<path class="st0" d="M60.5,57H58c-1.1,0-2,0.9-2,2v8.6L44.3,57.5C43.9,57.2,43.5,57,43,57H32c-1.1,0-2,0.9-2,2s0.9,2,2,2h10.3
		l14.4,12.5c0.4,0.3,0.8,0.5,1.3,0.5c0.3,0,0.6-0.1,0.8-0.2c0.7-0.3,1.2-1,1.2-1.8V61h0.5C68.1,61,74,54.8,74,47V27
		c0-4.7-2.2-9.1-5.9-11.6c-0.9-0.6-2.2-0.4-2.8,0.5c-0.6,0.9-0.4,2.2,0.5,2.8c2.6,1.8,4.1,4.9,4.1,8.3v20C70,52.7,65.9,57,60.5,57z"
		/>
	<path class="st0" d="M17,20h28c1.1,0,2-0.9,2-2s-0.9-2-2-2H17c-1.1,0-2,0.9-2,2S15.9,20,17,20z"/>
	<path class="st0" d="M17,33h18c1.1,0,2-0.9,2-2s-0.9-2-2-2H17c-1.1,0-2,0.9-2,2C15,32.1,15.9,33,17,33z"/>
</g>
</svg>
