<?xml version="1.0" encoding="utf-8"?>
<!-- Generator: Adobe Illustrator 24.1.2, SVG Export Plug-In . SVG Version: 6.00 Build 0)  -->
<svg version="1.1" id="Слой_1" xmlns="http://www.w3.org/2000/svg" xmlns:xlink="http://www.w3.org/1999/xlink" x="0px" y="0px"
	 viewBox="0 0 406.5 570.3" style="enable-background:new 0 0 406.5 570.3;" xml:space="preserve">
<style type="text/css">
	.st0{display:none;fill:#FFFFFF;}
	.st1{fill:#17E666;}
	.st2{fill:#E81E6A;}
</style>
<g>
	<path class="st0" d="M556.1,684.5c-233.3,0-466.7,0-700,0c0-233.3,0-466.7,0-700c233.3,0,466.7,0,700,0
		C556.1,217.9,556.1,451.2,556.1,684.5z M122.7,316.6c-0.4,0.1-0.9,0.2-1.3,0.2c-7.4-11.2-14.8-22.5-22.3-33.7
		c-11.8-17.7-30.3-25.1-51.1-20.7c-32.2,6.9-54.5,45.9-32.4,78.5c38.7,57,76.1,115,114.3,172.4c21,31.5,51.3,49.3,88.1,54.8
		c19,2.8,38.5,2.2,57.8,1.9c71.2-0.9,128.1-54.7,129.8-124.1c1.2-49.6,1-99.3,0.1-149c-0.7-39.4-36-58.2-66-46
		c-2.8,1.2-3.9-0.3-5.3-2c-8.2-9.5-18.5-14.9-30.9-16.8c-10.7-1.6-20.8,0.5-30.3,5.3c-13.5-14.8-30-20.1-49.8-16.8
		c0-2.6,0-4.6,0-6.6c0-35.7,0.2-71.3-0.1-107C223,72.9,190.9,49,158.7,58.6c-21.7,6.5-35.9,26-35.9,49.7c-0.1,67.5,0,135,0,202.5
		C122.7,312.8,122.7,314.7,122.7,316.6z M171.5,0.1c-2.8,0.2-7.2,0.2-11.5,0.7c-71.3,9-113.8,83.1-85.7,149
		c3.7,8.7,11.8,12.2,19.9,8.7c7.7-3.3,10.7-11.6,6.9-20.1c-5.5-12.5-7.8-25.4-6.2-39c3.7-31.6,20.4-54.1,49.9-65.5
		c29.9-11.5,57.9-6.2,81.6,15.7c24.5,22.5,31.2,57,18.2,88c-3.9,9.4-1.3,17.5,6.9,21c8.4,3.6,16.3,0.4,19.7-9.4
		c3.6-10.4,7.4-21.3,8.4-32.2C285.5,53.8,236.2,0.2,171.5,0.1z"/>
	<path class="st1" d="M122.7,316.6c0-1.9,0-3.9,0-5.8c0-67.5,0-135,0-202.5c0-23.7,14.2-43.2,35.9-49.7
		c32.2-9.6,64.3,14.3,64.6,48.6c0.3,35.7,0.1,71.3,0.1,107c0,2,0,3.9,0,6.6c19.8-3.4,36.3,1.9,49.8,16.8c9.5-4.7,19.6-6.9,30.3-5.3
		c12.4,1.9,22.7,7.3,30.9,16.8c1.5,1.7,2.5,3.1,5.3,2c29.9-12.3,65.3,6.5,66,46c0.9,49.6,1.2,99.3-0.1,149
		c-1.7,69.4-58.6,123.3-129.8,124.1c-19.3,0.2-38.9,0.9-57.8-1.9c-36.8-5.5-67.1-23.3-88.1-54.8C91.7,456,54.3,398,15.6,341
		c-22.1-32.6,0.2-71.6,32.4-78.5c20.8-4.5,39.4,3,51.1,20.7c7.5,11.2,14.9,22.4,22.3,33.7C121.9,316.8,122.3,316.7,122.7,316.6z
		 M150.2,236.8c0,32.7,0,65.3,0,98c0,10.8,0.1,21.7-0.1,32.5c-0.1,6.1-3.8,11.2-9.3,12.9c-5.9,1.9-11.2,0.6-15.5-4
		c-1.2-1.3-2.2-2.9-3.2-4.4c-16.2-24.6-32.5-49.2-48.6-73.9c-3.5-5.4-8.1-8.3-14.5-8.1c-8.7,0.3-15.7,4-20.8,11.1
		c-4.9,6.8-5,14.5-0.4,21.5c38.4,57.9,76.6,115.9,115.2,173.6c16.7,24.9,41,39.2,70.2,43.2c18,2.4,36.6,1.8,54.9,1.2
		c39-1.2,68.2-19.3,87.2-53.3c9.1-16.3,11.8-34,11.4-52.9c-0.9-44.1-0.3-88.3-0.3-132.5c0-2.7,0-5.4-0.4-8
		c-2-13.6-14.7-20.7-27.2-15.3c-3,1.3-4.2,3-4.2,6.4c0.2,12.5,0.2,25,0.1,37.5c-0.1,9.6-6.2,16.2-14.7,16.1c-8.3-0.1-14-6.7-14-16.1
		c0-13.7,0-27.3,0-41c0-15.4-15.9-25-29.8-18.1c-2.9,1.4-4.1,3.1-4.1,6.5c0.2,15.5,0.1,31,0.1,46.5c0,6.9-3.7,12.1-9.8,14.2
		c-9.6,3.3-18.8-3.8-18.9-15c-0.1-16.5,0.1-33-0.2-49.5c-0.1-3-1.4-6.6-3.3-9c-5.7-7.4-13.5-9.1-22.4-7.1c-4,0.9-5.6,2.7-5.5,7.2
		c0.3,18.7,0.2,37.3,0.1,56c0,8-6,14.2-13.6,14.5c-7.7,0.3-14-5.1-15-13.1c-0.2-2-0.2-4-0.2-6c0-65.7,0-131.3,0-197
		c0-2.2,0.1-4.3-0.1-6.5c-0.8-9-5.6-15.2-14-18.4c-14.6-5.5-29,5.3-29.1,21.7C150.2,151.2,150.2,194,150.2,236.8z"/>
	<path class="st1" d="M171.5,0.1c64.7,0.1,114,53.8,108.2,116.9c-1,10.9-4.7,21.7-8.4,32.2c-3.4,9.8-11.4,13-19.7,9.4
		c-8.2-3.5-10.8-11.6-6.9-21c13-31,6.3-65.5-18.2-88c-23.8-21.9-51.7-27.2-81.6-15.7C115.4,45.3,98.7,67.8,95,99.4
		c-1.6,13.5,0.7,26.5,6.2,39c3.8,8.6,0.8,16.8-6.9,20.1c-8.1,3.5-16.2-0.1-19.9-8.7C46.2,83.9,88.7,9.8,160,0.8
		C164.3,0.2,168.6,0.2,171.5,0.1z"/>
	<path class="st2" d="M116,316.6c0-1.9,0-3.9,0-5.8c0-67.5,0-135,0-202.5c0-23.7,14.2-43.2,35.9-49.7c32.2-9.6,64.3,14.3,64.6,48.6
		c0.3,35.7,0.1,71.3,0.1,107c0,2,0,3.9,0,6.6c19.8-3.4,36.3,1.9,49.8,16.8c9.5-4.7,19.6-6.9,30.3-5.3c12.4,1.9,22.7,7.3,30.9,16.8
		c1.5,1.7,2.5,3.1,5.3,2c29.9-12.3,65.3,6.5,66,46c0.9,49.6,1.2,99.3-0.1,149c-1.7,69.4-58.6,123.3-129.8,124.1
		c-19.3,0.2-38.9,0.9-57.8-1.9c-36.8-5.5-67.1-23.3-88.1-54.8C85,455.9,47.6,398,8.9,340.9c-22.1-32.6,0.2-71.6,32.4-78.5
		c20.8-4.5,39.4,3,51.1,20.7c7.5,11.2,14.9,22.4,22.3,33.7C115.1,316.7,115.6,316.6,116,316.6z M143.5,236.8c0,32.7,0,65.3,0,98
		c0,10.8,0.1,21.7-0.1,32.5c-0.1,6.1-3.8,11.2-9.3,12.9c-5.9,1.9-11.2,0.6-15.5-4c-1.2-1.3-2.2-2.9-3.2-4.4
		c-16.2-24.6-32.5-49.2-48.6-73.9c-3.5-5.4-8.1-8.3-14.5-8.1c-8.7,0.3-15.7,4-20.8,11.1c-4.9,6.8-5,14.5-0.4,21.5
		c38.4,57.9,76.6,115.9,115.2,173.6c16.7,24.9,41,39.2,70.2,43.2c18,2.4,36.6,1.8,54.9,1.2c39-1.2,68.2-19.3,87.2-53.3
		c9.1-16.3,11.8-34,11.4-52.9c-0.9-44.1-0.3-88.3-0.3-132.5c0-2.7,0-5.4-0.4-8c-2-13.6-14.7-20.7-27.2-15.3c-3,1.3-4.2,3-4.2,6.4
		c0.2,12.5,0.2,25,0.1,37.5c-0.1,9.6-6.2,16.2-14.7,16.1c-8.3-0.1-14-6.7-14-16.1c0-13.7,0-27.3,0-41c0-15.4-15.9-25-29.8-18.1
		c-2.9,1.4-4.1,3.1-4.1,6.5c0.2,15.5,0.1,31,0.1,46.5c0,6.9-3.7,12.1-9.8,14.2c-9.6,3.3-18.8-3.8-18.9-15c-0.1-16.5,0.1-33-0.2-49.5
		c-0.1-3-1.4-6.6-3.3-9c-5.7-7.4-13.5-9.1-22.4-7.1c-4,0.9-5.6,2.7-5.5,7.2c0.3,18.7,0.2,37.3,0.1,56c0,8-6,14.2-13.6,14.5
		c-7.7,0.3-14-5.1-15-13.1c-0.2-2-0.2-4-0.2-6c0-65.7,0-131.3,0-197c0-2.2,0.1-4.3-0.1-6.5c-0.8-9-5.6-15.2-14-18.4
		c-14.6-5.5-29,5.3-29.1,21.7C143.4,151.1,143.5,193.9,143.5,236.8z"/>
	<path class="st2" d="M164.7,0c64.7,0.1,114,53.8,108.2,116.9c-1,10.9-4.7,21.7-8.4,32.2c-3.4,9.8-11.4,13-19.7,9.4
		c-8.2-3.5-10.8-11.6-6.9-21c13-31,6.3-65.5-18.2-88C196,27.6,168,22.3,138.1,33.8C108.6,45.2,92,67.7,88.2,99.3
		c-1.6,13.5,0.7,26.5,6.2,39c3.8,8.6,0.8,16.8-6.9,20.1c-8.1,3.5-16.2-0.1-19.9-8.7C39.4,83.8,82,9.7,153.3,0.7
		C157.5,0.2,161.9,0.2,164.7,0z"/>
	<path class="st0" d="M150.2,236.8c0-42.8,0-85.7,0-128.5c0-16.4,14.4-27.2,29.1-21.7c8.4,3.1,13.2,9.4,14,18.4
		c0.2,2.2,0.1,4.3,0.1,6.5c0,65.7,0,131.3,0,197c0,2-0.1,4,0.2,6c1,8,7.2,13.4,15,13.1c7.6-0.3,13.6-6.4,13.6-14.5
		c0.1-18.7,0.2-37.3-0.1-56c-0.1-4.5,1.6-6.3,5.5-7.2c8.9-2,16.7-0.2,22.4,7.1c1.9,2.4,3.2,5.9,3.3,9c0.3,16.5,0,33,0.2,49.5
		c0.1,11.1,9.3,18.3,18.9,15c6-2.1,9.8-7.3,9.8-14.2c0.1-15.5,0.1-31-0.1-46.5c0-3.4,1.2-5.1,4.1-6.5c13.9-6.9,29.8,2.7,29.8,18.1
		c0,13.7,0,27.3,0,41c0,9.4,5.8,16,14,16.1c8.5,0.2,14.6-6.5,14.7-16.1c0.1-12.5,0.2-25-0.1-37.5c-0.1-3.4,1.2-5.1,4.2-6.4
		c12.5-5.4,25.2,1.7,27.2,15.3c0.4,2.6,0.4,5.3,0.4,8c0,44.2-0.6,88.3,0.3,132.5c0.4,18.9-2.3,36.6-11.4,52.9
		c-19,34-48.2,52.1-87.2,53.3c-18.3,0.5-36.8,1.2-54.9-1.2c-29.2-4-53.5-18.3-70.2-43.2c-38.6-57.7-76.8-115.7-115.2-173.6
		c-4.6-6.9-4.5-14.6,0.4-21.5c5.1-7.1,12.1-10.8,20.8-11.1c6.4-0.2,11,2.7,14.5,8.1c16.1,24.7,32.4,49.3,48.6,73.9
		c1,1.5,2,3.1,3.2,4.4c4.3,4.6,9.6,5.9,15.5,4c5.5-1.8,9.2-6.9,9.3-12.9c0.2-10.8,0.1-21.7,0.1-32.5
		C150.2,302.2,150.2,269.5,150.2,236.8z"/>
</g>
</svg>
