<?xml version="1.0" encoding="utf-8"?>
<!-- Generator: Adobe Illustrator 24.1.2, SVG Export Plug-In . SVG Version: 6.00 Build 0)  -->
<svg version="1.1" id="Слой_1" xmlns="http://www.w3.org/2000/svg" xmlns:xlink="http://www.w3.org/1999/xlink" x="0px" y="0px"
	 viewBox="0 0 365.2 383.2" style="enable-background:new 0 0 365.2 383.2;" xml:space="preserve">
<style type="text/css">
	.st0{display:none;fill:#FFFFFF;}
	.st1{fill:#7D123C;}
</style>
<g>
	<path class="st0" d="M130.2,383.2c-45.4,0-90.8,0-136.1,0.1c-2.5,0-3.1-0.4-3.1-3C-8.9,254.3-8.9,128.4-9,2.4
		c0-2.8,0.8-3.2,3.3-3.2c125.8,0.1,251.6,0.1,377.4,0c2.6,0,3.3,0.4,3.3,3.2c-0.1,125.9-0.1,251.9,0,377.8c0,2.6-0.6,3-3.1,3
		c-45.6-0.1-91.3-0.1-136.9-0.1c-1.2-1.4-1-3-1-4.6c0-7.1-0.1-14.2,0-21.3c0.1-3.3-0.8-5.6-3.7-7.5c-4.7-3-6.5-8.1-8.1-13.1
		c-0.7-2.3,0.3-3,3-2.2c4.1,1.3,8.1,3.3,12.3,4.4c32.2,8.6,61.6,2.8,87.6-18c22.7-18.2,35.2-42.2,38.3-71.1
		c3-28.4-4.5-53.9-22.3-76.1c-14.9-18.6-34.3-30.1-57.9-34.3c-0.5-0.1-1-0.2-1.5-0.3c-4-0.9-4.4-1.4-3-5.3c2.6-7,4.5-14.3,5.4-21.7
		c3.1-26.5-3.1-50.6-19.8-71.5C247.3,19,225,6.1,197.7,2.1c-44.6-6.5-89.1,16.1-108.4,56.7c-11.3,23.8-12.2,48.5-3.5,73.5
		c0.1,0.4,0.3,0.7,0.4,1.1c1.5,4.4,1.3,4.9-3.2,5.7c-16,2.9-30.7,8.9-43.4,19.1c-21.7,17.5-34.5,40.1-37.8,67.7
		c-3.7,31,4.6,58.7,24.9,82.3c16,18.7,36.4,30.1,60.9,33.5c17,2.4,33.5,0.4,49.5-6.2c1.8-0.7,4-2.4,5.5-0.9c1.6,1.6-0.2,3.7-0.9,5.5
		c-1.7,4.1-3.8,7.9-7.7,10.3c-2.2,1.3-2.8,3.3-2.8,5.7c0.1,7.5,0,15,0,22.4C131.2,380.1,131.5,381.8,130.2,383.2z"/>
	<path class="st1" d="M278.5,137.4c8.7-21.4,10.2-43.3,3.5-65.4c-6.7-22.3-20-39.9-39-53.2c-36.4-25.3-84.8-25.1-121.6,0.7
		c-16.9,11.8-29.1,27.4-36.3,46.8c-8.8,23.8-7.8,47.6,1.5,71.1C25.4,145.8-11.4,206,3.2,265.1c14.6,59.1,79,97.3,139.6,69.4
		c-2.2,6.4-4.2,12.3-10.2,15.7c-1.8,1.1-2.4,2.4-2.4,4.5c0.1,9.5,0.1,19,0.1,28.4c34.9,0,69.8,0,104.8,0c0-9.4-0.1-18.7,0.1-28.1
		c0-2.4-0.6-3.9-2.7-5.1c-5.8-3.4-7.8-9.3-10-15.8c19.4,8.9,38.9,11.6,59.2,7.9c20.5-3.7,37.9-13.3,52.6-27.8
		c14.6-14.5,24-32,28.4-52C375.6,204,338.6,145.5,278.5,137.4z M293.1,315.2c-27.9,11.6-53.9,7-77.2-12.1
		c-6.8-5.6-13.1-11.9-19.6-17.9c-1.2-1.1-2.3-2.1-4-3c3.4,26.7,2.1,54.3,17.8,78.3c-18.4,0-36.7,0-55,0c0-0.1-0.2-0.4-0.2-0.5
		c10-14,12.6-30.4,14.7-46.8c1.1-8.8,2-17.6,2.9-26.4c0.2-1.5,0.2-2.9,0.3-4.5c-1.9,0.2-2.7,1.6-3.8,2.6
		c-7.6,6.8-14.7,14.3-22.8,20.5c-32.3,25.1-76.4,20-103.9-11.7c-30.7-35.5-25.7-91,11-119.2c16.1-12.4,34.4-16.8,54.5-14.8
		c6.5,0.7,13.1,1.1,20.2,1.7c-4.3-6.2-8.1-11.9-12.2-17.6C82.2,96.3,110.7,34.4,167.2,24c25.1-4.6,48.1,0.9,68,17.1
		c31.5,25.6,37.5,67.8,14.8,101.5c-4,5.9-8,11.7-12,17.5c0.5,2.1,2,1,3.1,0.9c8.1-0.6,16.2-1.5,24.2-1.7
		c35.4-0.6,65.2,22.7,74.7,58.2C350.7,257.1,330.7,299.6,293.1,315.2z"/>
</g>
</svg>
