<?xml version="1.0" encoding="utf-8"?>
<!-- Generator: Adobe Illustrator 24.1.2, SVG Export Plug-In . SVG Version: 6.00 Build 0)  -->
<svg version="1.1" id="Слой_1" xmlns="http://www.w3.org/2000/svg" xmlns:xlink="http://www.w3.org/1999/xlink" x="0px" y="0px"
	 viewBox="0 0 384 351.8" style="enable-background:new 0 0 384 351.8;" xml:space="preserve">
<style type="text/css">
	.st0{fill:#15161A;}
</style>
<path class="st0" d="M332.4,18.6c-31.9-22.2-67-22.9-102.8-10.1c-12.8,4.5-23.9,12.1-35.2,19.4c-2.1,1.4-3.5,1.3-5.6,0
	c-6.6-4.2-13.1-8.6-20.1-12.3C136.6-1.5,103-5.6,69,8.7c-35.5,14.9-55.9,43.4-66,80c-1.2,4.4-0.9,9-2.9,13.2c0,1.2,0,2.5,0,3.7
	c0.5,0.5,0.5,1,0,1.5c0,4.5,0,9,0,13.5c0.5,0.5,0.5,1,0,1.5c0,1.2,0,2.5,0,3.7c1,0.3,0.7,1.2,0.8,1.9c2.2,16.9,7.8,32.6,16.3,47.3
	c12.3,21.3,28.6,39.2,46.1,56.2c41.4,40.4,84.9,78.7,126.7,118.7c1.5,1.4,2.2,1.3,3.6,0c6.5-6.3,13.1-12.7,19.8-18.8
	c35.4-32.7,71.2-65.2,105.8-98.8c18.3-17.7,35.5-36.4,48.1-58.9C401.1,112.8,377.7,50.1,332.4,18.6z M341.6,172
	c-11.1,16.7-24.9,31.1-39.2,45c-35.5,34.5-72.3,67.6-108.5,101.3c-1.3,1.3-2.2,2.2-4.1,0.4c-39.4-36.9-79.7-72.8-118-110.9
	C56.5,192.7,42.6,176.4,33,157c-6.7-13.6-10.3-28-10.4-40.6c-0.1-39,24.7-76.3,58-88.3c27.7-10,54.5-5.9,79.8,8.5
	c9.6,5.5,18.9,11.5,28.2,17.5c2.4,1.6,4,1.3,6.3-0.1c12.1-7.4,23.5-16,36.5-21.8c25.4-11.4,51.4-13.8,76.9-1.6
	c28.5,13.5,44.8,37.4,50.8,67.9C364.4,125.4,356.5,149.6,341.6,172z"/>
</svg>
