<?xml version="1.0" encoding="utf-8"?>
<!-- Generator: Adobe Illustrator 24.1.2, SVG Export Plug-In . SVG Version: 6.00 Build 0)  -->
<svg version="1.1" id="Слой_1" xmlns="http://www.w3.org/2000/svg" xmlns:xlink="http://www.w3.org/1999/xlink" x="0px" y="0px"
	 viewBox="0 0 115.7 92.6" style="enable-background:new 0 0 115.7 92.6;" xml:space="preserve">
<style type="text/css">
	.st0{display:none;fill:#FEFEFE;}
	.st1{display:none;fill:#F4F4F4;}
	.st2{fill:#17E666;}
</style>
<g>
	<path class="st0" d="M-17.1,56.9c0-24.7,0-49.3,0-74c0-0.7,0.1-0.9,0.9-0.9c49.4,0,98.8,0,148.2,0c0.8,0,0.9,0.2,0.9,0.9
		c0,49.4,0,98.7,0,148.1c0,0.7-0.1,0.9-0.9,0.9c-49.4,0-98.7,0-148.1,0c-0.8,0-1-0.2-1-1C-17.1,106.3-17.1,81.6-17.1,56.9z"/>
	<path class="st1" d="M15.8,120.1c0.3,1,0.3,1.7,0.1,2.7C15.5,122.4,15.5,121.8,15.8,120.1z"/>
	<path class="st2" d="M114.4,35.6c-2.6-9.3-8.2-16.6-15.8-22.4C88.9,5.7,77.8,1.7,65.7,0.4C52.8-0.9,40.3,0.8,28.5,6.3
		c-9.2,4.2-17,10.2-22.4,18.9c-5.4,8.5-7.3,17.7-5.2,27.6C2.7,61.2,7.2,68.1,13.4,74c0.7,0.7,0.8,1.2,0.4,2
		c-1.6,4.2-3.2,8.5-4.8,12.8c-0.4,1.1-0.5,2.2,0.4,3.2c0.9,0.9,2,0.8,3.1,0.4c5.9-2.2,11.9-4.4,17.8-6.7c0.6-0.2,1.2-0.3,1.8,0
		c8.3,3.2,16.9,4.7,25.7,4.7c9.1,0,17.9-1.6,26.4-5c9.7-3.9,18.1-9.7,24.2-18.4C115.2,57.4,117.5,46.9,114.4,35.6z M105.3,63
		c-5,7.7-12.1,13.1-20.4,16.7c-17.3,7.5-34.7,7.6-52.2,0.8c-0.9-0.4-1.8-0.4-2.7,0c-4.8,1.8-9.6,3.6-14.6,5.5
		c1.3-3.5,2.5-6.8,3.8-10.1c0.8-2.2,0.7-2.7-1-4.2C12.4,66.6,8,60.7,6,53.2c-2.7-10.1-0.5-19.3,5.6-27.6
		c6.3-8.5,14.8-13.8,24.7-17.2c10-3.4,20.3-4.3,30.7-2.9c10.1,1.3,19.4,4.7,27.7,10.8c6.8,5,12,11.3,14.6,19.4
		C112.3,45.5,110.7,54.5,105.3,63z"/>
	<path class="st2" d="M57.9,38.2c-4.4,0-8.1,3.6-8.2,8c0,4.5,3.6,8.2,8.1,8.2c4.4,0,8.1-3.7,8.1-8.1C66,41.9,62.3,38.2,57.9,38.2z
		 M57.8,49.5c-1.7-0.1-3.2-1.6-3.1-3.3c0.1-1.7,1.6-3.2,3.3-3.1c1.7,0.1,3.2,1.6,3.1,3.3C61,48.1,59.5,49.6,57.8,49.5z"/>
	<path class="st2" d="M76.4,38.2c-4.4,0-8.1,3.7-8.1,8.1c0,4.4,3.7,8.1,8.1,8.1c4.4,0,8.1-3.6,8.1-8.1
		C84.6,41.9,80.9,38.2,76.4,38.2z M76.4,49.5c-1.7,0-3.2-1.5-3.1-3.2c0-1.7,1.5-3.2,3.2-3.2c1.7,0,3.2,1.5,3.2,3.2
		C79.6,48.1,78.1,49.5,76.4,49.5z"/>
	<path class="st2" d="M39.3,38.2c-4.5,0-8.2,3.7-8.2,8.1c0,4.4,3.7,8.1,8.1,8.1c4.4,0,8.1-3.6,8.1-8.1
		C47.4,41.9,43.7,38.2,39.3,38.2z M39.3,49.5c-1.7,0-3.2-1.5-3.2-3.2c0-1.7,1.5-3.2,3.2-3.2c1.7,0,3.2,1.4,3.2,3.2
		C42.4,48,41,49.5,39.3,49.5z"/>
</g>
</svg>
