<?xml version="1.0" encoding="utf-8"?>
<!-- Generator: Adobe Illustrator 24.1.2, SVG Export Plug-In . SVG Version: 6.00 Build 0)  -->
<svg version="1.1" id="Слой_1" xmlns="http://www.w3.org/2000/svg" xmlns:xlink="http://www.w3.org/1999/xlink" x="0px" y="0px"
	 viewBox="0 0 525.1 375" style="enable-background:new 0 0 525.1 375;" xml:space="preserve">
<style type="text/css">
	.st0{fill:#15E666;}
	.st1{fill:#DE1E67;}
</style>
<g>
	<path d="M487.7,300c9.1,0,17.5,0,25.8,0c8.5,0.1,11.8,3.2,11.7,11.9c-0.2,9.1,0.2,18.5-1.6,27.3c-4,19.7-21.2,33.9-41.4,35.5
		c-2.3,0.2-4.7,0.3-7,0.3c-141.7,0-283.3,0-425,0c-22.5,0-39.6-10.8-46.7-30c-1.9-5.1-2.7-10.6-3.2-16c-0.5-6.1-0.3-12.3-0.1-18.5
		c0.1-7,3.5-10.3,10.6-10.4c7-0.1,14,0,21,0c1.8,0,3.6,0,5.9,0c0-2.7,0-4.8,0-6.9c0-93.3,0-186.7,0-280C37.7,2.8,40.4,0,50.6,0
		c141.3,0,282.6,0,424,0c10.3,0,13.1,2.8,13.1,13c0,93.5,0,187,0,280.5C487.7,295.5,487.7,297.4,487.7,300z M468.5,299.7
		c0-93.8,0-187.2,0-280.8c-137.4,0-274.4,0-411.7,0c0,93.7,0,187.1,0,280.8C194.1,299.7,331,299.7,468.5,299.7z M18.8,318.9
		c0,2.9,0,5.2,0,7.5c0.1,17.8,12,29.9,29.8,29.9c142.7,0,285.3,0,428,0c20.4,0,33.8-17.2,29.1-37.4
		C343.7,318.9,181.6,318.9,18.8,318.9z"/>
	<path class="st0" d="M468.5,299.7c-137.5,0-274.5,0-411.7,0c0-93.7,0-187.1,0-280.8c137.3,0,274.3,0,411.7,0
		C468.5,112.6,468.5,206,468.5,299.7z M262.6,37.5c-58.3,0-116.6,0-175,0c-9.6,0-12.5,2.9-12.5,12.5c0,73,0,146,0,218.9
		c0,9.2,3.2,12.4,12.3,12.4c116.8,0,233.6,0,350.4,0c9.1,0,12.3-3.2,12.3-12.4c0-73,0-146,0-218.9c0-9.6-3-12.5-12.6-12.5
		C379.3,37.5,321,37.5,262.6,37.5z"/>
	<path class="st0" d="M18.8,318.9c162.8,0,324.9,0,486.9,0c4.7,20.2-8.7,37.4-29.1,37.4c-142.7,0-285.3,0-428,0
		c-17.8,0-29.7-12.1-29.8-29.9C18.8,324.1,18.8,321.8,18.8,318.9z"/>
	<path d="M262.6,37.5c58.3,0,116.6,0,175,0c9.6,0,12.6,2.9,12.6,12.5c0,73,0,146,0,218.9c0,9.2-3.2,12.4-12.3,12.4
		c-116.8,0-233.6,0-350.4,0c-9.1,0-12.3-3.1-12.3-12.4c0-73,0-146,0-218.9c0-9.6,3-12.5,12.5-12.5C146,37.5,204.3,37.5,262.6,37.5z
		 M431.1,262.3c0-68.8,0-137.2,0-205.5c-112.6,0-224.8,0-337,0c0,68.7,0,137,0,205.5C206.5,262.3,318.6,262.3,431.1,262.3z"/>
	<path class="st1" d="M431.1,262.3c-112.5,0-224.6,0-337,0c0-68.5,0-136.8,0-205.5c112.2,0,224.5,0,337,0
		C431.1,125.1,431.1,193.5,431.1,262.3z M262.4,243.7c40.1,0,80.3,0,120.4,0c7.7,0,11-3.2,11-10.9c0.1-11.5,0.1-23,0-34.5
		c0-7.3-3.4-10.8-10.7-10.8c-80.3,0-160.6,0-240.9,0c-7.3,0-10.7,3.4-10.8,10.7c-0.1,11,0,22,0,33c0,9.7,2.8,12.5,12.4,12.5
		C183.4,243.7,222.9,243.7,262.4,243.7z M194,121.9c2.2-1.7,3.9-3,5.6-4.3c7.3-5.5,14.7-10.9,21.9-16.5c4.2-3.3,4.7-8.9,1.7-12.9
		c-3-4.1-8.5-5.1-12.9-1.9c-12.7,9.3-25.4,18.8-37.9,28.4c-4.9,3.8-5.1,10.5-0.2,14.3c12.6,9.8,25.4,19.3,38.3,28.8
		c3.6,2.7,7.6,2.3,11.1-0.5c3.4-2.7,4.3-6.5,2.8-10.3c-0.9-2.2-2.8-4.1-4.7-5.6C211.4,134.9,203,128.7,194,121.9z M331.4,121.9
		c-9.2,6.9-18,13.4-26.6,20c-4.9,3.7-5.9,9.2-2.8,13.5c3.3,4.6,8.8,5.2,14,1.4c11.9-8.8,23.8-17.7,35.5-26.6
		c6.6-5,6.6-11.6,0.1-16.5c-11.8-8.9-23.7-17.8-35.5-26.6c-1.4-1.1-3.1-2-4.8-2.4c-4.2-1-8.7,1.4-10.2,5.3
		c-1.8,4.5-0.8,8.5,3.2,11.5C313.1,108.2,322,114.8,331.4,121.9z M281.4,85.6c0.1-5.5-3.4-9.6-8-10.2c-5.2-0.7-9.3,2-10.7,7.6
		c-6.1,24.2-12.1,48.4-18.1,72.6c-1.6,6.3,1,11.3,6.3,12.7c5.5,1.5,10.2-1.8,11.9-8.4c4.4-17.4,8.7-34.8,13.1-52.3
		C277.7,100,279.6,92.4,281.4,85.6z"/>
	<path d="M262.4,243.7c-39.5,0-79,0-118.4,0c-9.7,0-12.4-2.8-12.4-12.5c0-11,0-22,0-33c0-7.3,3.4-10.7,10.8-10.7
		c80.3,0,160.6,0,240.9,0c7.3,0,10.6,3.4,10.7,10.8c0.1,11.5,0.1,23,0,34.5c0,7.6-3.3,10.9-11,10.9
		C342.6,243.7,302.5,243.7,262.4,243.7z M150.3,224.5c75.2,0,149.8,0,224.5,0c0-6.2,0-12,0-17.8c-75,0-149.7,0-224.5,0
		C150.3,212.8,150.3,218.4,150.3,224.5z"/>
	<path d="M194,121.9c9.1,6.8,17.5,13,25.8,19.4c1.9,1.5,3.9,3.4,4.7,5.6c1.5,3.8,0.6,7.6-2.8,10.3c-3.5,2.8-7.5,3.2-11.1,0.5
		c-12.9-9.5-25.7-19-38.3-28.8c-4.9-3.8-4.7-10.5,0.2-14.3c12.5-9.6,25.2-19.1,37.9-28.4c4.4-3.2,9.8-2.1,12.9,1.9
		c3,4,2.4,9.6-1.7,12.9c-7.2,5.7-14.6,11-21.9,16.5C197.9,118.9,196.2,120.2,194,121.9z"/>
	<path d="M331.4,121.9c-9.4-7-18.3-13.7-27.1-20.4c-3.9-3-5-7-3.2-11.5c1.5-3.9,6-6.3,10.2-5.3c1.7,0.4,3.4,1.3,4.8,2.4
		c11.9,8.8,23.8,17.7,35.5,26.6c6.5,4.9,6.5,11.5-0.1,16.5c-11.8,9-23.6,17.8-35.5,26.6c-5.2,3.9-10.7,3.3-14-1.4
		c-3.1-4.3-2.1-9.8,2.8-13.5C313.4,135.3,322.2,128.8,331.4,121.9z"/>
	<path d="M281.4,85.6c-1.7,6.8-3.6,14.4-5.5,22c-4.4,17.4-8.7,34.9-13.1,52.3c-1.7,6.6-6.4,9.9-11.9,8.4c-5.3-1.4-7.9-6.4-6.3-12.7
		c6-24.2,12-48.4,18.1-72.6c1.4-5.5,5.4-8.3,10.7-7.6C278,76,281.5,80.1,281.4,85.6z"/>
	<path class="st0" d="M150.3,224.5c0-6.1,0-11.8,0-17.8c74.8,0,149.5,0,224.5,0c0,5.8,0,11.6,0,17.8
		C300.1,224.5,225.5,224.5,150.3,224.5z"/>
</g>
</svg>
