<?xml version="1.0" encoding="utf-8"?>
<!-- Generator: Adobe Illustrator 24.1.2, SVG Export Plug-In . SVG Version: 6.00 Build 0)  -->
<svg version="1.1" id="Слой_1" xmlns="http://www.w3.org/2000/svg" xmlns:xlink="http://www.w3.org/1999/xlink" x="0px" y="0px"
	 viewBox="0 0 291.6 384" style="enable-background:new 0 0 291.6 384;" xml:space="preserve">
<style type="text/css">
	.st0{display:none;fill:#FFFFFF;}
	.st1{fill:#7D123C;}
</style>
<g>
	<path class="st0" d="M-45.7,191.6c0-62.9,0-125.7-0.1-188.6c0-2.6,0.5-3.1,3.1-3.1c126,0.1,251.9,0.1,377.9,0
		c2.6,0,3.1,0.5,3.1,3.1c-0.1,126-0.1,251.9,0,377.9c0,2.6-0.5,3.1-3.1,3.1c-126-0.1-251.9-0.1-377.9,0c-2.6,0-3.1-0.5-3.1-3.1
		C-45.7,317.8-45.7,254.7-45.7,191.6z"/>
	<path class="st1" d="M289.9,188.7c-31.9-41.5-63.7-83-95.6-124.6C178.9,44,163.5,23.8,148,3.6c-0.6-0.8-1-2-2.5-2.3
		c-0.7,0.8-1.4,1.7-2,2.6C96.2,65.6,48.9,127.3,1.5,188.9c-2,2.6-2.1,4.2,0,6.8c47.4,61.6,94.7,123.3,141.9,185.1
		c2,2.6,2.8,2.8,4.8,0c47.1-61.7,94.3-123.3,141.7-184.8C292.1,193.3,292.2,191.6,289.9,188.7z M262.5,194.9
		c-38.1,49.9-76.2,99.8-114.2,149.8c-1.4,1.9-2,2.2-3.6,0.1c-38.1-50.1-76.2-100.1-114.4-150.1c-1.6-2.1-1.1-3.3,0.3-5
		c38-49.8,76-99.6,114-149.4c0.6-0.7,0.9-1.8,2.2-2c0.6,0.7,1.2,1.5,1.8,2.2c32.3,42.4,64.6,84.8,97,127.2
		c5.7,7.4,11.2,14.9,17,22.2C264,191.8,263.9,193,262.5,194.9z"/>
</g>
</svg>
