<?xml version="1.0" encoding="utf-8"?>
<!-- Generator: Adobe Illustrator 24.1.2, SVG Export Plug-In . SVG Version: 6.00 Build 0)  -->
<svg version="1.1" id="Слой_1" xmlns="http://www.w3.org/2000/svg" xmlns:xlink="http://www.w3.org/1999/xlink" x="0px" y="0px"
	 viewBox="0 0 94.1 53.7" style="enable-background:new 0 0 94.1 53.7;" xml:space="preserve">
<style type="text/css">
	.st0{fill:#17E666;}
</style>
<g>
	<path class="st0" d="M0.2,28.3L0.2,28.3c1,4.6,6.9,10.9,15.1,16c9.5,6,20.5,9.3,31.8,9.4c23.7,0,44.4-16.3,46.7-25.2
		c0.2-0.5,0.3-1.1,0.3-1.7c0-0.1,0-0.1,0-0.2c0-0.4-0.1-0.9-0.2-1.3C92,16.7,71.1,0,47.2,0C23.6,0,2.7,16.2,0.3,25
		C0.1,25.6,0,26.3,0,26.9l0,0C0,27.4,0.1,27.8,0.2,28.3z M6.1,26.8v-0.1c1.3-5,18.5-20.6,41.1-20.6c22.3,0,39.8,15.4,40.9,20.7
		l0.1,0.1l0,0l0,0V27c-1.2,5-18.2,20.7-40.9,20.7c-22.2,0-40-15.3-41.1-20.7V26.8L6.1,26.8z"/>
	<path class="st0" d="M47.1,44.7c9.9,0,17.8-8,17.8-17.8s-8-17.8-17.8-17.8s-17.8,8-17.8,17.8v0C29.2,36.7,37.2,44.7,47.1,44.7z
		 M47.1,15.1c6.5,0,11.8,5.3,11.8,11.8s-5.3,11.8-11.8,11.8s-11.8-5.3-11.8-11.8C35.2,20.4,40.5,15.1,47.1,15.1z"/>
</g>
</svg>
