<?xml version="1.0" encoding="utf-8"?>
<!-- Generator: Adobe Illustrator 24.1.2, SVG Export Plug-In . SVG Version: 6.00 Build 0)  -->
<svg version="1.1" id="Слой_1" xmlns="http://www.w3.org/2000/svg" xmlns:xlink="http://www.w3.org/1999/xlink" x="0px" y="0px"
	 viewBox="0 0 228.9 412.6" style="enable-background:new 0 0 228.9 412.6;" xml:space="preserve">
<style type="text/css">
	.st0{fill:#E81E6A;}
	.st1{fill:none;stroke:#E81E6A;stroke-miterlimit:10;}
	.st2{display:none;fill:#ED2224;}
</style>
<path class="st0" d="M89.6,161.3c-5-3.9-9.5-6.3-12.9-7.7c-4.1-1.8-7.6-2.7-12-3.9c-2.6-0.7-4.5-1.1-6.6-1.4c-2.7-0.4-5-0.5-6.7-0.5
	c-1.7-0.1-3.9-0.1-6.3,0.3c-2,0.3-3.8,0.8-5.2,1.3c-1.5,0.4-3.2,1-5,2c-3.6,1.9-6.1,4.4-7.6,6.2c-1.1,1.1-2.4,2.7-3.6,4.9
	c-1.7,3.2-2.2,6.1-2.4,8c1.2-2,3.6-5.7,8.1-8.7c1.8-1.3,5.9-3.6,11.4-4.3c3.3-0.4,6-0.1,7.9,0.2c3.6,0.5,6.3,1.4,8.6,2.1
	c2.8,0.9,4.9,1.8,5.8,2.3c3.6,1.6,6.1,3.1,6.8,3.6c3.3,2.1,5.7,4.1,7.2,5.4c1.3,1.1,2.8,2.5,4,3.6c1.5,1.4,2.6,2.4,4.4,3.8
	c1.7,1.3,2.6,1.8,3.3,2.1c0.8,0.3,1.9,0.7,3.4,0.9c0.5-0.1,1.6-0.3,2.5-1.1c0.6-0.6,0.9-1.2,1.2-2c0.4-0.9,0.8-2.3,0.8-4
	s-0.2-3-0.5-3.7c-0.4-1-0.9-2.2-1.6-3.4C93.1,164.2,91,162.4,89.6,161.3z"/>
<path class="st1" d="M226,211.6c0.3,3.7-0.4,24.8-4,39c-0.3,1-1.6,6.2-3.3,13.4c-1.5,6.8-2.5,11.6-2.7,12.5
	c-1.9,8.9-8.6,28.3-24.3,54.9c-10.3,17.5-9.5,12.6-22.7,34.2c-11.2,18.3-13.2,24.3-22,32c-5.8,5-16.9,14.7-31,15
	c-18.5,0.4-32-15.6-45-31c-10.1-12-6.2-11-32.8-55.3c-10.6-17.6-15.1-24.3-19.1-37c-1.9-6.1-3.7-14.3-7.1-30.9
	c-3.1-14.7-4.6-22.1-5.4-27.6C6,226.2,4.3,211,8,185.6c3.4-22.7,10.4-46.2,21-72c15.4-37.5,49.7-62.9,87-64
	c48.3-1.5,81.4,38.1,93,64c5.9,13.1,8.6,27.9,12,46C223.3,171.8,224.2,185.1,226,211.6z"/>
<path class="st0" d="M141.1,161.3c5-3.9,9.5-6.3,12.9-7.7c4.1-1.8,7.6-2.7,12-3.9c2.6-0.7,4.5-1.1,6.5-1.4c2.7-0.4,5-0.5,6.7-0.5
	c1.7-0.1,3.9-0.1,6.3,0.3c2,0.3,3.8,0.8,5.2,1.3c1.5,0.4,3.2,1,5,2c3.6,1.9,6.1,4.4,7.6,6.2c1.1,1.1,2.4,2.7,3.6,4.9
	c1.7,3.2,2.2,6.1,2.4,8c-1.2-2-3.6-5.7-8.1-8.7c-1.8-1.3-5.9-3.6-11.5-4.3c-3.3-0.4-6-0.1-7.9,0.2c-3.6,0.5-6.3,1.4-8.6,2.1
	c-2.8,0.9-4.9,1.8-5.8,2.3c-3.5,1.6-6.1,3.1-6.8,3.6c-3.3,2.1-5.7,4.1-7.2,5.4c-1.3,1.1-2.8,2.5-4,3.6c-1.5,1.4-2.6,2.4-4.4,3.8
	c-1.7,1.3-2.6,1.8-3.3,2.1c-0.8,0.3-1.9,0.7-3.4,0.9c-0.5-0.1-1.6-0.3-2.5-1.1c-0.6-0.6-0.9-1.2-1.2-2c-0.4-0.9-0.8-2.3-0.8-4
	s0.2-3,0.5-3.7c0.4-1,0.9-2.2,1.6-3.4C137.6,164.2,139.6,162.4,141.1,161.3z"/>
<path class="st0" d="M140.8,185.9c-1.9,2.4-3.9,5.2-4.9,9.1c-0.3,1-1.4,5.6-0.2,6.2c1.5,0.8,4.9-5.7,14-13.8
	c1.5-1.3,3.3-2.7,6.9-5.6c5.5-4.4,7.5-5.8,9-6.8c1.3-0.9,3.4-2.3,5.9-3.6s3.8-2,5.9-2.6c0.5-0.1,1.6-0.3,3.9-0.8
	c3.4-0.6,3.8-0.7,4.5-1.1c0.2-0.1,3.1-1.9,2.8-4.1c-0.3-1.7-2.3-2.6-2.5-2.6c-0.6-0.2-1.2-0.3-3.4-0.1c-2,0.2-3.5,0.6-4.6,0.8
	c-3.1,0.7-4.6,1-5.3,1.2s-2.6,0.8-5.4,2.2c-8.6,4.3-16.3,10.9-16.3,10.9C147.2,178.7,143.8,182.1,140.8,185.9z"/>
<path class="st0" d="M161.8,199.3c1.2-0.4,2.7-0.9,4.5-1.3c0.9-0.2,2.2-0.4,3.7-0.6c0.6-0.1,1.7-0.2,3.8-0.4c1.7-0.1,4-0.3,5.2-0.3
	s6.1,0,12.1,2.2c4.5,1.7,7.9,4,10.1,5.7c1.1,0.9,2.8,2.6,3.8,5.3c0.4,1,0.9,2.5,0.7,4.5c-0.1,0.8-0.3,2.4-1.4,4
	c-0.9,1.2-2,1.9-2.5,2.2c-0.6,0.4-1.5,0.7-2.5,1c-2,0.6-3.8,0.5-4.9,0.3c-2.4-0.3-2.8-0.6-5.7-1.1c-3.2-0.6-5.8-0.7-7.1-0.7
	c-1.1,0-1,0-5.9,0.1c-2,0-3.8,0.1-5.9,0.1c-4.4,0-4.9,0-6.7,0.1c-2.4,0.1-4.2,0.4-5.4,0.6c-4.4,0.6-7.8-0.6-9.2-1.8
	c-0.5-0.4-1.8-1.7-2.3-3.1c-0.1-0.2-0.1-0.3-0.1-0.4c-0.1-0.3-0.4-1.3-0.3-2.5c0.1-2.1,1-3.6,1.5-4.3c0.6-0.7,1.5-1.7,2.7-2.7
	c1.6-1.4,3-2.3,4-2.9c1.8-1.1,3.2-1.9,3.8-2.2C159.5,200.2,160.9,199.6,161.8,199.3z"/>
<path class="st0" d="M183.9,195.3c-1-14-3-23.4-5.2-23.4s-4.2,9.5-5.2,23.4H183.9z"/>
<path class="st0" d="M183.9,221.7c-1,14-3,23.4-5.2,23.4s-4.2-9.5-5.2-23.4H183.9z"/>
<path class="st0" d="M44.7,195.3c1-14,3-23.4,5.2-23.4s4.2,9.5,5.2,23.4H44.7z"/>
<path class="st0" d="M44.7,221.7c1,14,3,23.4,5.2,23.4s4.2-9.5,5.2-23.4H44.7z"/>
<path class="st0" d="M222.2,247.5c-0.1,0-0.2,3.3-2,8.5c-0.9,2.4-2.1,5.8-4.9,9.4c-2,2.7-4.3,4.4-8.8,7.9c-4.2,3.3-6.3,4.9-8.8,5.9
	c-3.2,1.3-5.9,1.4-11.3,1.7c-5.3,0.3-9.6,0-11.9-0.2c-8.5-0.7-13.1-2.3-13.5-1.4c-0.3,0.7,2.3,2.6,4.8,3.6c3,1.2,6.2,1.2,9.6,1.3
	c1.2,0,2.7,0,4.6,0.4c1.7,0.4,3.4,0.8,3.8,1.9c0.6,1.4-1.1,3.4-2.6,5.1c-9.1,10.3-8.4,9.8-9,10.3c-4.7,4.3-7.2,6.6-11.5,8.9
	c-1.1,0.6-5.1,2.6-10.8,3.8c-3.5,0.7-6.1,1.2-9.5,0.6c-2.2-0.4-6.1-1.1-8.7-4.1c-2.8-3.2-2.3-6.7-4.8-7.3c-1-0.3-1.9,0.2-3.4,0.8
	c-3.4,1.6-3.5,3.6-6.1,4.4c-2.2,0.7-3-0.4-3.9,0.3c-2,1.6-0.9,8.3,2.7,12.9c2.8,3.6,5.5,4.1,6.5,7.7c0.7,2.8-0.6,3.8,0.2,5.1
	c2.5,4.2,18.2-0.9,28.4-4.3c7.3-2.4,10.1-3.8,12.4-5.3c4.8-3,7.7-6.2,11.2-10.2c5-5.7,8.3-10.8,14.1-19.9c2.8-4.4,4.2-6.6,4.2-6.6
	c1-2.3,1.6-4.3,2.8-4.4c1.1-0.1,2.1,1.4,2.2,1.5c1.2,2,0.5,4.6-0.5,7.1c-2.7,7.3-5.4,11.1-5.4,11.1c-3.3,4.8-5.5,7.1-12.7,15.5
	c0,0-8.6,10-8.4,10.3c0,0,0.6-0.5,2.3-1.8c1.8-1.5,2-1.5,2.2-1.5c0.9,0.3,0.9,3.7-0.1,6.8c-0.8,2.6-2.1,4.1-3.3,5.8
	c-2.2,3-3.7,6.4-5.6,9.5c-5.1,8.7-10.9,20.3-10.3,20.6c0.3,0.2,2.5-3.1,4.9-6.6c12.2-18.4,18.5-29.3,27.4-43.6
	c11.6-18.6,12.2-18,13.1-22c1.8-7.8,5.3-15.2,7.9-22.8c0.3-0.7,0.9-2.5,2.5-3.1c1.2-0.4,2,0.2,2.7,0.2
	C219.4,271.4,222.5,247.6,222.2,247.5z"/>
<path class="st2" d="M117.5,271.6c0.6-0.9,2-0.9,2.5-0.9c3.9,0,8.4,4.9,9.9,10.4c1,3.6,0.5,7,0,7.1s-0.9-2.2-3.3-6.6
	c-0.5-1-1.1-2-2-3.1c-1.2-1.5-1.8-2.3-2.9-2.8c-1.9-1-3.2-0.2-4.1-1.3C117.2,273.6,117,272.4,117.5,271.6z"/>
<path class="st0" d="M10.4,247.5c0.1,0,0.2,3.3,2,8.5c0.9,2.4,2.1,5.8,4.9,9.4c2,2.7,4.3,4.4,8.8,7.9c4.2,3.3,6.3,4.9,8.8,5.9
	c3.2,1.3,5.9,1.4,11.3,1.7c5.3,0.3,9.6,0,11.9-0.2c8.5-0.7,13.1-2.3,13.4-1.4c0.3,0.7-2.3,2.6-4.8,3.6c-3,1.2-6.2,1.2-9.6,1.3
	c-1.2,0-2.7,0-4.6,0.4c-1.7,0.4-3.4,0.8-3.8,1.9c-0.6,1.4,1.1,3.4,2.6,5.1c9.1,10.3,8.4,9.8,9,10.3c4.7,4.3,7.2,6.6,11.5,8.9
	c1.1,0.6,5.2,2.6,10.8,3.8c3.5,0.7,6.1,1.2,9.5,0.6c2.2-0.4,6.1-1.1,8.7-4.1c2.8-3.2,2.3-6.7,4.8-7.3c1-0.3,1.9,0.2,3.4,0.8
	c3.4,1.6,3.5,3.6,6.1,4.4c2.2,0.7,3-0.4,3.9,0.3c2,1.6,0.9,8.3-2.7,12.9c-2.8,3.6-5.5,4.1-6.5,7.7c-0.7,2.8,0.6,3.8-0.2,5.1
	c-2.5,4.2-18.2-0.9-28.4-4.3c-7.3-2.4-10.1-3.8-12.4-5.3c-4.8-3-7.7-6.2-11.2-10.2c-5-5.7-8.3-10.8-14.1-19.9
	c-2.8-4.4-4.2-6.6-4.2-6.6c-1-2.3-1.6-4.3-2.8-4.4c-1.1-0.1-2.1,1.4-2.2,1.5c-1.2,2-0.4,4.6,0.5,7.1c2.7,7.3,5.4,11.1,5.4,11.1
	c3.3,4.8,5.5,7.1,12.7,15.5c0,0,8.6,10,8.4,10.3c-0.1,0-0.6-0.5-2.3-1.8c-1.8-1.5-2-1.5-2.2-1.5c-0.9,0.3-0.9,3.7,0.1,6.8
	c0.8,2.6,2.1,4.1,3.3,5.8c2.2,3,3.7,6.4,5.6,9.5c5.1,8.7,10.8,20.3,10.3,20.6c-0.3,0.2-2.5-3.1-4.9-6.6
	C59,344.2,52.7,333.3,43.8,319c-11.6-18.6-12.2-18-13.1-22c-1.8-7.8-5.3-15.2-7.9-22.8c-0.3-0.7-0.9-2.5-2.4-3.1
	c-1.2-0.4-2,0.2-2.7,0.2C13.2,271.4,10.1,247.6,10.4,247.5z"/>
<path class="st2" d="M81.1,271.6c-0.6-0.9-2-0.9-2.5-0.9c-3.9,0-8.4,4.9-9.9,10.4c-1,3.6-0.5,7,0,7.1s0.9-2.2,3.3-6.6
	c0.5-1,1.1-2,2-3.1c1.2-1.5,1.8-2.3,2.9-2.8c1.9-1,3.2-0.2,4.1-1.3C81.4,273.6,81.6,272.4,81.1,271.6z"/>
<path class="st2" d="M106.9,336c-0.2-0.1-0.5-0.3-0.7-0.6c-0.1-0.1-0.3-0.4-0.4-0.8c-0.1-0.3,0-0.5,0-0.7c0-0.3,0.1-0.5,0.1-0.7
	c0,0,0,0-0.1,0l0,0c-1.1,0-2.2,0-3.3,0c-0.1-0.3-0.2-0.5-0.4-0.6c-0.1-0.1-0.3-0.3-0.6-0.4c-0.4,0-0.9,0-1.3,0c-0.6,0-1.3,0-1.9,0
	c-0.4,0-0.9,0-1.3,0c-0.3,0.1-0.5,0.2-0.6,0.4c-0.2,0.2-0.3,0.4-0.4,0.6c-1.1,0-2.2,0-3.4,0c0,0.1,0.1,0.3,0.1,0.6
	c0,0.4,0.1,0.6,0,0.9c-0.1,0.4-0.3,0.7-0.4,0.8c-0.2,0.3-0.5,0.5-0.7,0.6c1.5,0,2.9,0,4.4,0c0.1,0.3,0.2,0.5,0.4,0.6
	c0.1,0.1,0.3,0.3,0.6,0.4c0.4,0,0.9,0,1.3,0c0.6,0,1.3,0,1.9,0c0.4,0,0.9,0,1.3,0c0.3-0.1,0.5-0.2,0.6-0.4c0.2-0.2,0.3-0.4,0.4-0.6
	C104,336,105.5,336,106.9,336z"/>
<path class="st0" d="M124.2,369.5c-0.9-3-1.1-3.5-1.3-4.4c-1-4.1,0-7.9,0.4-9.1c1.9-6,6.4-7.2,5.6-10c-0.5-1.6-2.4-2.4-5.1-3.5
	c-3-1.2-5.8-1.4-7.5-1.4s-4.4,0.2-7.4,1.4c-2.7,1.1-4.7,1.8-5.1,3.5c-0.8,2.8,3.8,4,5.6,10c0.4,1.2,1.4,5,0.4,9.1
	c-0.2,0.9-0.4,1.4-1.3,4.4c-0.8,2.7-1.1,4.1-1.3,4.8c-0.6,3.5-0.3,6.5,0,8.3c0.2,1.3,0.4,2.9,1.1,5c0.4,1,0.6,1.4,1,2.8
	c0.4,1.1,0.5,1.8,1,3.2c0.3,0.8,0.5,1.4,0.6,1.5c0.4,1.1-2.6,13.1,0.1,16.2c1.1,1.3,3.7,1.4,5.3,0.7c1.6,0.7,4.1,0.6,5.3-0.7
	c2.7-3.1-0.4-15,0.1-16.2c0-0.1,0.3-0.7,0.6-1.5c0.5-1.4,0.7-2.1,1-3.2c0.5-1.5,0.7-1.8,1-2.8c0.7-2.1,1-3.8,1.1-5
	c0.3-1.8,0.6-4.8,0-8.3C125.3,373.6,124.9,372.2,124.2,369.5z"/>
<path class="st0" d="M96.4,235.7c1,17.1,5.5,29.3,9.2,37.1c3.1,6.5,8.4,15.7,10.6,14.9c0.7-0.3,0.8-1.5,0.5-14.5
	c-0.2-8.6-0.2-10.4-1.3-13.1c-0.9-2.1-2.5-4.3-5.8-8.7c-2.3-3-4.1-5.3-6.9-8.4C100.1,239.9,97.9,237.4,96.4,235.7z"/>
<path class="st0" d="M136.4,235.7c-1,17.1-5.5,29.3-9.2,37.1c-3.1,6.5-8.4,15.7-10.6,14.9c-0.7-0.3-0.8-1.5-0.5-14.5
	c0.2-8.6,0.2-10.4,1.3-13.1c0.9-2.1,2.5-4.3,5.8-8.7c2.3-3,4.1-5.3,6.9-8.4C132.6,239.9,134.8,237.4,136.4,235.7z"/>
<path class="st0" d="M74.4,111.8c0.4,3.8-1,6-1.4,10.5c1.5-1.5,4-3,8.4-6.3c5.4-4.1,6-5,9.9-8c7.6-5.9,11.4-8.9,17-10.8
	c4.5-1.5,8.6-1.8,11.5-1.7c2.4,1.7,4.8,3.4,7.2,5c1.7,1.4,2.9,2.6,3.8,3.5c2.1,2.2,3.1,3.3,3.3,3.5c0.4,0.5,0.9,0.9,0.9,0.9
	s-0.4-3.4-0.5-3.7c-0.8-3-1.6-3.9-2.1-6.4c-0.3-1.4-0.4-2.6-0.4-3.4c0-0.5,0.1-1.1,0.1-1.6c0.7,0.1,1.8,0.3,3,0.8
	c1.1,0.5,1.9,1.1,2.3,1.4c2.5,2,2.4,1.5,6.5,4.5c3.1,2.2,5.2,4.1,6.6,5.3c2.8,2.5,5.2,4.9,8.2,8.2c6.7,7.4,12.6,15.2,15.7,19.3
	c0.4-2.9,0.7-6.3,0.7-10.1c0-4-0.3-7.5-0.7-10.6c5,3.5,10.8,8.3,16.4,15.1c2.3,2.8,4.2,5.5,5.8,8.1c1.3-2,2.1-3.8,2.6-5.1
	c0.6-1.7,0.9-3.1,1.1-4.4c0.4-2.4,0.5-4.3,0.5-4.8c0-1.3,0-2.5-0.1-3.4c1,0.5,2,1,3,1.6c0.4,0.3,1,0.7,1.7,1.3c0,0,1.2,1.1,2.1,2.7
	c5.6,10,8.3,25.3,8.3,25.3c1,5.6,2.8,13.5,6.4,23c0.9-1.2,2-2.8,2.8-4.9c0.5-1.1,0.8-2.1,1-3c1.1-7.7,1.9-16.1,2.3-25
	c0.3-5.8,0.3-11.3,0.3-16.6c0.4-3.7,0.5-8.1-0.3-13c-2-14-9.1-23.8-13.3-28.6c1.1,4.2,2.1,8.4,3.2,12.6c-6-9.8-11.4-17.7-15.7-23.5
	c-6.1-8.3-9.3-11.9-13.5-15.3c-5.1-4.1-10.1-6.7-13.5-8.2c12.2,13.8,13.9,17.2,13.3,17.9c-1.2,1.3-12.7-7.4-18.6-12.3
	c-7.1-5.8-6.4-6.2-15.3-14c-15-13.3-23.4-17.9-27.3-19.9c-3.5-1.8-6.5-3.1-8.4-3.8c4.2,9.4,4.2,12,3.4,12.6
	c-1.8,1.2-9.4-6.1-14.1-14.1c-2.8-4.8-4.3-9.2-5.1-12.3c-0.6,1.2-1.5,2.9-2.3,5.1c-1.3,3.4-3.9,10.3-3.3,18.4
	c0.5,5.9,2.4,9.6,1.5,10c-0.7,0.3-2.6-2-3.8-4.3c-3-5.7-3.2-10.6-2.5-11l0,0l-0.3,0.2c-11,6.2-21.1,14.3-21.1,14.3
	c-4.5,3.6-9.9,7.9-16,14.7c-5.4,6-9.6,10.7-12.8,18.1c-2.7,6.3-3.6,11.9-4.3,11.7c-0.7-0.1-0.7-4.9-0.3-8.9c0.7-5.8,1.1-8.9,1.5-9.2
	s-4.7,3.7-6.9,6.6c-3.2,4.3-4.9,8.1-5.4,9.2c-5.1,11.5-5.6,20.3-6.6,20.2c-0.9-0.1-1-5.9-1-8.2c0-2.5,0.3-4.6,0.5-6.1
	c-1.2,0.8-2.9,2-4.6,3.8c-2.9,3-5.1,6.6-7.9,15.6c-2.8,8.8-4.2,13.2-4.6,19.4c-0.6,10-1.1,16.2,1,23.5c0.5,1.9,2,6.6,0,8.4
	c-1.2,1.1-2.6,0.1-3.6,1c-2.2,2,1.7,8.4,4.9,19.1c0.9,2.9,1.4,5.4,1.8,6.9c0.6,2.1,1.2,4.3,1.8,6.4c0.4-3.6,1.2-8.5,2.5-14.4
	c1.3-5.7,2-9,3.6-13.2c1.5-3.9,5.2-11.8,12.6-18c2-1.7,4.2-3.2,5.5-2.5c1.3,0.8,0.8,3.5,0.8,8.2c0,3.3,1.4,11.4,1.3,11.7
	s2.9-6.1,7.2-14.3c1.9-3.6,5.9-11.2,12.5-17.9C58.6,121,64.7,115.8,74.4,111.8z"/>
<path class="st0" d="M68.8,199.3c-1.2-0.4-2.7-0.9-4.4-1.3c-0.9-0.2-2.2-0.4-3.7-0.6c-0.6-0.1-1.7-0.2-3.8-0.4
	c-1.7-0.1-4-0.3-5.2-0.3s-6.1,0-12.1,2.2c-4.5,1.7-7.9,4-10.1,5.7c-1.1,0.9-2.8,2.6-3.8,5.3c-0.4,1-0.9,2.5-0.7,4.5
	c0.1,0.8,0.3,2.4,1.4,4c0.9,1.2,1.9,1.9,2.6,2.2c0.6,0.4,1.5,0.7,2.5,1c2,0.6,3.8,0.5,4.9,0.3c2.4-0.3,2.8-0.6,5.7-1.1
	c3.2-0.6,5.8-0.7,7.1-0.7c1.1,0,0.9,0,5.9,0.1c2,0,3.8,0.1,5.9,0.1c4.4,0,4.9,0,6.7,0.1c2.4,0.1,4.2,0.4,5.4,0.6
	c4.4,0.6,7.8-0.6,9.2-1.8c0.5-0.4,1.8-1.7,2.3-3.1c0.1-0.2,0.1-0.3,0.1-0.4c0.1-0.3,0.4-1.3,0.3-2.5c-0.1-2.1-1-3.6-1.5-4.3
	c-0.6-0.7-1.5-1.7-2.7-2.7c-1.6-1.4-3-2.3-4-2.9c-1.8-1.1-3.2-1.9-3.8-2.2C71.2,200.2,69.8,199.6,68.8,199.3z"/>
<path class="st0" d="M40.9,290.7c2.4,7.1,10.2,27.3,29.8,39.1c13,7.8,27.8,9.8,32.6,10.5c5.3,0.7,9.9,0.8,13.1,0.8
	c0-3.1,0-6.1,0-9.2c-7.8,0.1-25-0.6-43.4-10.7C54.8,311.1,45,297.3,40.9,290.7z"/>
<path class="st0" d="M191.8,290.7c-2.4,7.1-10.2,27.3-29.8,39.1c-13,7.8-27.8,9.8-32.6,10.5c-5.3,0.7-9.9,0.8-13.1,0.8
	c0-3.1,0-6.1,0-9.2c7.8,0.1,25-0.6,43.4-10.7C177.9,311.1,187.7,297.3,191.8,290.7z"/>
<path class="st0" d="M89.9,185.9c1.9,2.4,3.9,5.2,4.9,9.1c0.3,1,1.4,5.6,0.2,6.2c-1.5,0.8-4.9-5.7-14-13.8c-1.5-1.3-3.3-2.7-6.9-5.6
	c-5.5-4.4-7.5-5.8-8.9-6.8c-1.3-0.9-3.4-2.3-5.9-3.6s-3.8-2-5.9-2.6c-0.4-0.1-1.6-0.3-3.9-0.8c-3.4-0.6-3.8-0.7-4.5-1.1
	c-0.2-0.1-3.1-1.9-2.8-4.1c0.3-1.7,2.3-2.6,2.5-2.6c0.6-0.2,1.2-0.3,3.4-0.1c2,0.2,3.5,0.6,4.6,0.8c3.1,0.7,4.6,1,5.3,1.2
	s2.6,0.8,5.4,2.2c8.6,4.3,16.3,10.9,16.3,10.9C83.5,178.7,86.9,182.1,89.9,185.9z"/>
</svg>
