<?xml version="1.0" encoding="utf-8"?>
<!-- Generator: Adobe Illustrator 24.1.2, SVG Export Plug-In . SVG Version: 6.00 Build 0)  -->
<svg version="1.1" id="Слой_1" xmlns="http://www.w3.org/2000/svg" xmlns:xlink="http://www.w3.org/1999/xlink" x="0px" y="0px"
	 viewBox="0 0 89.8 80" style="enable-background:new 0 0 89.8 80;" xml:space="preserve">
<style type="text/css">
	.st0{fill:#17E666;}
</style>
<g>
	<g>
		<path class="st0" d="M79.8,0H10C4.5,0,0,4.5,0,10v40.6c0,5.5,4.5,10,10,10h39L68.9,80V60.6h10.9c5.5,0,10-4.5,10-10V10
			C89.8,4.5,85.3,0,79.8,0z M84.8,50.6c0,2.8-2.2,5-5,5H68.9h-5v5v7.5L52.5,57L51,55.6h-2H10c-2.8,0-5-2.2-5-5V10c0-2.8,2.2-5,5-5
			h69.9c2.8,0,5,2.2,5,5L84.8,50.6L84.8,50.6z"/>
	</g>
	<g>
		<path class="st0" d="M61.7,26.3h-1.8c-0.3-1.3-0.8-2.5-1.5-3.6l1.3-1.3c0.7-0.7,0.7-1.9,0-2.6l-3.3-3.3c-0.7-0.7-1.9-0.7-2.6,0
			l-1.3,1.3c-1.1-0.6-2.3-1.1-3.6-1.5v-1.8c0-1-0.8-1.8-1.8-1.8h-4.7c-1,0-1.8,0.8-1.8,1.8v1.8c-1.3,0.3-2.5,0.8-3.6,1.5l-1.3-1.3
			c-0.7-0.7-1.9-0.7-2.6,0l-3.3,3.3c-0.7,0.7-0.7,1.9,0,2.6l1.3,1.3c-0.6,1.1-1.1,2.3-1.5,3.6h-1.8c-1,0-1.8,0.8-1.8,1.8v4.7
			c0,1,0.8,1.8,1.8,1.8h1.8c0.3,1.3,0.8,2.5,1.5,3.6l-1.3,1.3c-0.7,0.7-0.7,1.9,0,2.6l3.3,3.3c0.7,0.7,1.9,0.7,2.6,0l1.3-1.3
			c1.1,0.6,2.3,1.1,3.6,1.5v1.8c0,1,0.8,1.8,1.8,1.8h4.7c1,0,1.8-0.8,1.8-1.8v-1.8c1.3-0.3,2.5-0.8,3.6-1.5l1.3,1.3
			c0.7,0.7,1.9,0.7,2.6,0l3.3-3.3c0.7-0.7,0.7-1.9,0-2.6l-1.3-1.3c0.6-1.1,1.1-2.3,1.5-3.6h1.8c1,0,1.8-0.8,1.8-1.8v-4.7
			C63.5,27.1,62.7,26.3,61.7,26.3z M44.7,37.8c-4,0-7.3-3.3-7.3-7.3s3.3-7.3,7.3-7.3s7.3,3.3,7.3,7.3S48.7,37.8,44.7,37.8z"/>
	</g>
</g>
</svg>
