<?xml version="1.0" encoding="utf-8"?>
<!-- Generator: Adobe Illustrator 24.1.2, SVG Export Plug-In . SVG Version: 6.00 Build 0)  -->
<svg version="1.1" id="Layer_1" xmlns="http://www.w3.org/2000/svg" xmlns:xlink="http://www.w3.org/1999/xlink" x="0px" y="0px"
	 viewBox="0 0 512 469.1" style="enable-background:new 0 0 512 469.1;" xml:space="preserve">
<style type="text/css">
	.st0{fill:#17E666;}
</style>
<g>
	<g>
		<path class="st0" d="M489.3,72.8C452.8,13.1,401.9,0.3,365.6,0C334.7-0.2,304,8.7,277,25.7l-21,13.2l-21-13.1
			C208,8.7,177.4-0.2,146.4,0C110.1,0.3,59.2,13.1,22.7,72.8C-6.8,120.9-7.6,178,20.5,229.3c21.7,39.7,55.4,71.5,88.1,102.1
			c5.7,5.4,11.2,10.5,16.6,15.7c20.2,19.4,40.7,38.1,60.5,56.2c19.7,18,40,36.6,60,55.7l10.4,10l10.4-10c20-19.2,40.3-37.8,60-55.7
			c19.8-18.1,40.3-36.8,60.5-56.2c5.4-5.2,10.8-10.3,16.6-15.7c32.6-30.7,66.3-62.4,88.1-102.1C519.6,178,518.8,120.9,489.3,72.8z
			 M465.2,215c-19.4,35.6-51.4,65.6-82.3,94.7c-5.5,5.2-11.3,10.6-16.8,15.9c-20,19.2-40.3,37.8-60,55.7
			c-16.4,15-33.3,30.4-50.1,46.3c-16.8-15.9-33.7-31.3-50.1-46.3c-19.7-18-40-36.6-60-55.7c-5.5-5.3-11.2-10.7-16.8-15.9
			c-30.9-29.1-62.8-59.1-82.3-94.7C24,173.3,24.5,127.2,48.2,88.5C71.8,50,104.9,30.3,146.6,30c0.3,0,0.6,0,1,0
			c24.9,0,49.6,7.3,71.5,21.1L256,74.2l37-23.2c22.1-14,47.2-21.3,72.4-21.1c41.7,0.3,74.8,20,98.4,58.5
			C487.4,127.2,488,173.3,465.2,215z"/>
	</g>
</g>
</svg>
