<?xml version="1.0" encoding="utf-8"?>
<!-- Generator: Adobe Illustrator 24.1.2, SVG Export Plug-In . SVG Version: 6.00 Build 0)  -->
<svg version="1.1" id="Слой_1" xmlns="http://www.w3.org/2000/svg" xmlns:xlink="http://www.w3.org/1999/xlink" x="0px" y="0px"
	 viewBox="0 0 95 85.9" style="enable-background:new 0 0 95 85.9;" xml:space="preserve">
<style type="text/css">
	.st0{display:none;}
	.st1{fill:#17E666;}
</style>
<g id="Слой_2_1_" class="st0">
</g>
<g id="Слой_1_1_">
	<g>
		<path class="st1" d="M85.9,30.3h-9.4V9.1c0-5-4.1-9.1-9.1-9.1H9.1C4.1,0,0,4.1,0,9.1v67.7c0,5,4.1,9.1,9.1,9.1H82
			c7.2,0,13-5.8,13-13V39.4C95,34.4,90.9,30.3,85.9,30.3z M9.1,78.5c-0.9,0-1.6-0.7-1.6-1.6V9.1c0-0.9,0.7-1.6,1.6-1.6h58.3
			c0.9,0,1.6,0.7,1.6,1.6V73c0,2,0.4,3.8,1.2,5.5H9.1z M87.5,73c0,3-2.5,5.5-5.5,5.5S76.5,76,76.5,73V37.8h9.4
			c0.9,0,1.6,0.7,1.6,1.6V73z"/>
		<path class="st1" d="M19.1,39H30c2.1,0,3.7-1.7,3.7-3.7V19.8c0-2.1-1.7-3.7-3.7-3.7H19.1c-2.1,0-3.7,1.7-3.7,3.7v15.4
			C15.3,37.3,17,39,19.1,39z"/>
		<path class="st1" d="M57.4,47H19.1c-2.1,0-3.7,1.7-3.7,3.7s1.7,3.7,3.7,3.7h38.3c2.1,0,3.7-1.7,3.7-3.7S59.5,47,57.4,47z"/>
		<path class="st1" d="M57.4,31.5H44c-2.1,0-3.7,1.7-3.7,3.7s1.7,3.7,3.7,3.7h13.4c2.1,0,3.7-1.7,3.7-3.7S59.5,31.5,57.4,31.5z"/>
		<path class="st1" d="M57.4,16.1H44c-2.1,0-3.7,1.7-3.7,3.7s1.7,3.7,3.7,3.7h13.4c2.1,0,3.7-1.7,3.7-3.7S59.5,16.1,57.4,16.1z"/>
		<path class="st1" d="M57.4,62.4H19.1c-2.1,0-3.7,1.7-3.7,3.7c0,2.1,1.7,3.7,3.7,3.7h38.3c2.1,0,3.7-1.7,3.7-3.7
			C61.1,64.1,59.5,62.4,57.4,62.4z"/>
	</g>
</g>
</svg>
