<?xml version="1.0" encoding="utf-8"?>
<!-- Generator: Adobe Illustrator 24.1.2, SVG Export Plug-In . SVG Version: 6.00 Build 0)  -->
<svg version="1.1" id="Слой_1" xmlns="http://www.w3.org/2000/svg" xmlns:xlink="http://www.w3.org/1999/xlink" x="0px" y="0px"
	 viewBox="0 0 558.5 598.9" style="enable-background:new 0 0 558.5 598.9;" xml:space="preserve">
<style type="text/css">
	.st0{display:none;fill:#FFFFFF;}
	.st1{fill:#15161A;}
</style>
<g>
	<path class="st0" d="M297.1,0c110.7,0,221.4,0,332.1,0c0,233.3,0,466.6,0,700c-233.3,0-466.6,0-700,0c0-233.3,0-466.6,0-700
		C51.4,0,173.8,0,296.1,0c-1.5,1-2.9,2.2-4.4,3.1c-95.1,55-190.2,110.1-285.4,165.1c-1.9,1.1-3.8,2.3-6.3,3.8
		c99.7,57.4,198.7,114.3,298.4,171.7c0-29.2,0-57.2,0-85.5c2,0,3.5-0.2,4.9,0c36,4.4,69.5,16,98.7,37.7
		c52.6,39.1,77.8,91.1,68.6,156.7c-9.5,67.7-47.5,115-109.5,143.4c-1.8,0.8-3.6,1.6-6.6,2.9C447.6,584,543.9,493.4,556.7,375
		c6.8-62.5-6-121.1-41.6-173.7c-52.1-76.8-126-114.2-218-117.8C297.1,55.3,297.1,27.7,297.1,0z"/>
	<path class="st1" d="M297.1,0c0,27.7,0,55.3,0,83.5c92,3.7,165.9,41,218,117.8c35.6,52.5,48.4,111.2,41.6,173.7
		c-12.8,118.4-109.2,209-202.1,223.9c3-1.3,4.8-2.1,6.6-2.9c62-28.3,100-75.7,109.5-143.4c9.2-65.6-16-117.7-68.6-156.7
		c-29.3-21.7-62.7-33.3-98.7-37.7c-1.4-0.2-2.9,0-4.9,0c0,28.3,0,56.4,0,85.5C198.7,286.3,99.7,229.4,0,172c2.6-1.5,4.4-2.7,6.3-3.8
		c95.1-55,190.3-110,285.4-165.1c1.5-0.9,2.9-2,4.4-3.1C296.4,0,296.8,0,297.1,0z"/>
</g>
</svg>
