<?xml version="1.0" encoding="utf-8"?>
<!-- Generator: Adobe Illustrator 24.1.2, SVG Export Plug-In . SVG Version: 6.00 Build 0)  -->
<svg version="1.1" id="Слой_1" xmlns="http://www.w3.org/2000/svg" xmlns:xlink="http://www.w3.org/1999/xlink" x="0px" y="0px"
	 viewBox="0 0 501.2 501" style="enable-background:new 0 0 501.2 501;" xml:space="preserve">
<style type="text/css">
	.st0{display:none;fill:#FEFEFE;}
	.st1{fill:#151617;}
</style>
<g>
	<path class="st0" d="M251.3,651.5c-115.3,0-230.6,0-345.9,0.1c-3.4,0-4.1-0.7-4.1-4.1c0.1-230.6,0.1-461.2,0-691.8
		c0-3.4,0.7-4.1,4.1-4.1c230.6,0.1,461.2,0.1,691.8,0c3.4,0,4.1,0.7,4.1,4.1c-0.1,230.6-0.1,461.2,0,691.8c0,3.4-0.7,4.1-4.1,4.1
		C481.9,651.5,366.6,651.5,251.3,651.5z"/>
	<path class="st1" d="M498.9,458.8c-42.7-42.4-85.1-85-127.7-127.5c-2.4-2.4-3.4-3.8-0.9-7.2c25.7-35.8,38.5-75.9,38.9-119.6
		c-0.1-12.2-1.1-24-3.1-35.7C386.7,56.7,277.3-18.3,165.5,3.9C55.6,25.7-16.3,130.6,3.2,240.9C19,330.3,93.9,399.8,183.9,408.4
		c50.5,4.8,96.7-7.5,138.4-36.3c5.8-4,5.8-4,11,1.1c41.8,41.8,83.7,83.6,125.4,125.6c3.3,3.3,4.7,2.9,7.7-0.1
		c10.6-10.8,21.4-21.5,32.4-31.9C501.9,463.7,502.2,462.1,498.9,458.8z M204.2,363.7c-87.6-0.2-158.9-71.6-158.8-159
		C45.6,117.1,117.6,45.4,205,45.8c87.6,0.4,158.6,71.9,158.4,159.4C363.1,292.8,291.8,363.9,204.2,363.7z"/>
</g>
</svg>
