<?xml version="1.0" encoding="utf-8"?>
<!-- Generator: Adobe Illustrator 24.1.2, SVG Export Plug-In . SVG Version: 6.00 Build 0)  -->
<svg version="1.1" id="Слой_1" xmlns="http://www.w3.org/2000/svg" xmlns:xlink="http://www.w3.org/1999/xlink" x="0px" y="0px"
	 viewBox="0 0 365.2 382.5" style="enable-background:new 0 0 365.2 382.5;" xml:space="preserve">
<style type="text/css">
	.st0{display:none;fill:#FFFFFF;}
	.st1{fill:#7D123C;}
</style>
<g>
	<path class="st0" d="M130.2,382.5c-45.4,0-90.8,0-136.1,0.1c-2.5,0-3.1-0.4-3.1-3C-9,253.6-9,127.7-9.1,1.7c0-2.8,0.8-3.2,3.3-3.2
		c125.8,0.1,251.6,0.1,377.4,0c2.6,0,3.3,0.4,3.3,3.2c-0.1,125.9-0.1,251.9,0,377.8c0,2.6-0.6,3-3.1,3c-45.6-0.1-91.3-0.1-136.9-0.1
		c-1.2-1.4-0.9-3-0.9-4.6c0-7.1-0.1-14.2,0-21.3c0.1-3.3-1-5.4-3.7-7.5c-6.3-4.8-8.3-12.2-10-19.5c-0.5-2.3,1.5-2.2,3-1.8
		c3.2,1,6.5,1.9,9.7,2.6c26.6,6.4,52.3,3.9,76.4-9.5c17.2-9.6,29.9-23.8,39.8-40.7c11.3-19,16.2-39.6,14.8-61.6
		c-1.2-18.7-7.2-36.1-16.9-52.1c-7.7-12.6-16.8-24.1-26.7-35.1c-11.3-12.6-23.7-23.9-35.8-35.5c-17.9-17.1-36.1-34-54.4-50.7
		c-15.2-13.9-30.5-27.6-45-42.1c-2.1-2.1-3.5-2.1-5.5,0c-12.9,13.3-26.9,25.6-40.5,38.2c-18.5,17.1-37.1,34-55.2,51.4
		c-10.9,10.4-22.1,20.5-32.6,31.3c-14.3,14.8-27.5,30.6-37.2,49c-8.2,15.6-13,32.3-13.3,50.1c-0.7,34.7,13.4,63,38.4,86
		c15.6,14.3,34.4,21.9,55.7,24c15.6,1.5,30.5-0.6,45.4-4.9c1.3-0.4,2.7-1.3,3.9-0.3c1.4,1.2,0.3,2.8-0.1,4.2c-1.4,4.8-3,9.5-6,13.6
		c-0.7,1-1.4,2.2-2.5,2.8c-4.4,2.1-4.8,5.8-4.6,10c0.2,6.6,0.1,13.2,0,19.8C131.1,379.7,131.3,381.2,130.2,382.5z"/>
	<path class="st1" d="M346.7,163.8c-12.3-19.9-28.2-36.7-44.9-52.9C263.3,73.6,223,38.1,184.4,1c-1.7-1.6-2.5-1-3.9,0.3
		C143.6,36.7,105.3,70.5,68.4,106c-17,16.4-33.7,33-46.8,52.7C9.3,177.2,1.3,197.1,0,219.5c-1.5,25.6,5.6,48.8,20.4,69.6
		c24.9,35.2,59,49.8,101.7,44.2c7.5-1,14.7-3.1,22.4-5.4c-2.8,8.9-4.5,17.8-13.2,22.6c-1.6,0.9-1.1,2.4-1.1,3.7c0,9.5,0,19,0,28.4
		c34.9,0,69.8,0,104.8,0c0-9.6,0-19.2,0.1-28.8c0-1.8-0.5-3-2-4c-8.2-4.9-9.6-13.5-12.3-22.1c1.2,0.4,1.8,0.6,2.4,0.8
		c16.6,5.5,33.5,7.4,50.9,5.2c56.5-7,89.4-60.3,91.3-101.8C366.2,207.2,359.5,184.7,346.7,163.8z M296.8,303.1
		c-22.8,12.1-46.4,11.3-70.2,2.7c-10.7-3.9-20.1-10.3-29.9-16c-1.1-0.6-2.1-1.2-3.9-2.2c1.2,12.9,2.2,25.2,4.4,37.3
		c2.2,12.3,5.5,24.2,13.3,34.8c-18.9,0-37.2,0-55.7,0c14.7-21.9,14.4-47.1,17.7-72.3c-6.1,3.6-11.6,6.7-17,9.9
		c-15.6,9.4-32.4,14.7-50.6,14.6c-29-0.2-51.1-13.2-66.9-37.1c-21.7-33-20.3-66.3-0.4-99.4c10.5-17.5,24.5-32,39-46.1
		c34-33,69.2-64.8,103.9-97c1.3-1.2,2.1-1.9,3.9-0.3c37.5,35,75.7,69.1,112.1,105.3c14.4,14.4,27.5,29.9,36.7,48.3
		C358.1,236.2,330.7,285.1,296.8,303.1z"/>
</g>
</svg>
