<?xml version="1.0" encoding="utf-8"?>
<!-- Generator: Adobe Illustrator 24.1.2, SVG Export Plug-In . SVG Version: 6.00 Build 0)  -->
<svg version="1.1" id="Слой_1" xmlns="http://www.w3.org/2000/svg" xmlns:xlink="http://www.w3.org/1999/xlink" x="0px" y="0px"
	 viewBox="0 0 676 676" style="enable-background:new 0 0 676 676;" xml:space="preserve">
<style type="text/css">
	.st0{fill:#E81E6A;}
</style>
<g>
	<path class="st0" d="M676,90c0,165.7,0,331.3,0,497c-0.8,2.9-1.7,5.7-2.2,8.6c-6.2,36.2-36.9,68.8-72.9,77.1
		c-4.6,1.1-9.3,2.2-13.9,3.3c-165.7,0-331.3,0-497,0c-4.3-1-8.7-1.8-12.9-2.9c-19.2-4.7-35.8-13.9-49.5-28.4
		c-12-12.7-20.1-27.4-24.3-44.3c-1.2-4.8-2.2-9.6-3.3-14.4C0,420.7,0,255.3,0,90c0.4-0.6,1.2-1.2,1.2-1.8
		c1.5-17.7,7.9-33.5,18.4-47.6c14.2-18.9,32.8-31.7,56-37.4C80.4,2.1,85.2,1.1,90,0c165.3,0,330.7,0,496,0c0.8,0.4,1.5,1.2,2.3,1.2
		c24.2,2.2,44.4,13.1,60.7,30.3c11.8,12.4,20.1,27.5,23.8,44.6C673.8,80.8,674.9,85.4,676,90z M28.7,337.7c0,79,0,158,0,237
		c0,15.6,3.8,29.8,13,42.6c14,19.3,32.8,29.9,56.7,29.9c159,0.2,318,0.1,476.9,0.1c15.2,0,29.1-4,41.6-12.9
		c19.9-14.1,30.2-33.4,30.2-57.5c0.2-158.8,0.1-317.6,0.1-476.4c0-11.8-2.1-23.2-8-33.7c-13.6-24.3-34.2-38-62-38
		c-159.3-0.3-318.6-0.2-477.9,0c-6.4,0-13,0.5-19,2.3c-30.1,9.1-51.5,35.2-51.6,67.1C28.6,178.1,28.7,257.9,28.7,337.7z"/>
	<path class="st0" d="M325.3,211.3c12.7,0,25.3,0,38,0c6.9,0,13.7,3.9,15,10.6c1.6,8.2,1.7,16.7,2.2,25c0.1,2.2-0.8,4.5-0.8,6.8
		c-0.1,23.7-0.1,47.3,0.1,71c0,3.1,0.7,7.2,2.7,8.9c3.1,2.6,6.7-0.3,9.1-2.7c5.9-6,11.9-12.1,16.9-18.8
		c9.3-12.3,18.6-24.7,26.5-37.9c9.5-15.8,17.7-32.3,26-48.7c5-9.8,11.6-15.1,23.3-14.4c13.3,0.8,26.7,0.4,40,0.1
		c15.1-0.3,17.7,8.8,14.7,19.2c-3.1,10.8-8.1,21.3-13.8,31c-13.4,22.9-27.7,45.3-41.7,67.9c-1.8,2.9-4,5.6-6.1,8.4
		c-5.8,8-5.1,14,3,22.7c7,7.5,14.5,14.6,21.2,22.3c14,16.2,29.3,31.4,40.7,49.7c3.2,5.2,6,11.2,7.1,17.1c1.7,9.4-0.6,14.4-11.9,15
		c-18.3,0.8-36.7,0.5-55,0.1c-8.4-0.2-13.7-6.4-19-12.2c-10.4-11.5-20.6-23.3-31.6-34.1c-8.7-8.5-18.5-16-28.3-23.4
		c-3.3-2.5-7.6-4.3-11.6-4.9c-9.1-1.3-11.6,2.6-12.1,13.6c-0.6,13.1-0.6,26.3,0,39.5c0.6,13.1-5,15.8-17.1,18.5
		c-5.6,1.3-11.5,1-17.3,1.1c-17.5,0.5-34.4-3-50.6-9.2c-19.8-7.6-37.9-18.3-54.1-31.9c-17-14.1-31.5-30.6-44.4-48.6
		c-16.8-23.5-32.1-48-45.1-73.8c-10.9-21.7-20-44.2-24.8-68.2c-1.9-9.2,0.8-15.6,8-18.7c1.6-0.7,3.5-0.9,5.2-0.9
		c16.2-0.1,32.3-0.1,48.5,0c8,0,14.3,3.4,17.4,10.8c5.3,12.5,9.5,25.5,15.2,37.9c7.1,15.5,14.6,30.9,23.2,45.6
		c7.4,12.7,16.3,24.6,25.4,36.3c3.7,4.7,9.1,8.4,14.4,11.5c5.1,3,9.3,0.8,10.9-4.9c0.9-3.3,1.6-6.7,1.7-10.1
		c0.1-20.8,0.1-41.7,0.1-62.5c-0.1-13.5-1.7-26.6-10-38.1c-3.4-4.7-7-9.5-9.2-14.8c-2.4-5.9,2.3-11.6,8.8-11.6
		C299,211.3,312.2,211.3,325.3,211.3z"/>
</g>
</svg>
